<mxfile>
    <diagram id="2-J05UgXprXhV57OwEHs" name="Страница 1">
        <mxGraphModel dx="878" dy="628" grid="1" gridSize="10" guides="1" tooltips="1" connect="1" arrows="1" fold="1" page="1" pageScale="1" pageWidth="827" pageHeight="1169" math="0" shadow="0">
            <root>
                <mxCell id="0"/>
                <mxCell id="1" parent="0"/>
                <mxCell id="ZEgpx0x-rwaUSgGwOZ2--5" value="Interface Engine" style="swimlane;fontStyle=1;childLayout=stackLayout;horizontal=1;startSize=26;fillColor=none;horizontalStack=0;resizeParent=1;resizeParentMax=0;resizeLast=0;collapsible=1;marginBottom=0;" parent="1" vertex="1">
                    <mxGeometry x="560" y="270" width="140" height="78" as="geometry"/>
                </mxCell>
                <mxCell id="ZEgpx0x-rwaUSgGwOZ2--6" value="+ StartEngine(): String" style="text;strokeColor=none;fillColor=none;align=left;verticalAlign=top;spacingLeft=4;spacingRight=4;overflow=hidden;rotatable=0;points=[[0,0.5],[1,0.5]];portConstraint=eastwest;" parent="ZEgpx0x-rwaUSgGwOZ2--5" vertex="1">
                    <mxGeometry y="26" width="140" height="26" as="geometry"/>
                </mxCell>
                <mxCell id="ZEgpx0x-rwaUSgGwOZ2--7" value="+ StopEngine(): String" style="text;strokeColor=none;fillColor=none;align=left;verticalAlign=top;spacingLeft=4;spacingRight=4;overflow=hidden;rotatable=0;points=[[0,0.5],[1,0.5]];portConstraint=eastwest;" parent="ZEgpx0x-rwaUSgGwOZ2--5" vertex="1">
                    <mxGeometry y="52" width="140" height="26" as="geometry"/>
                </mxCell>
                <mxCell id="ZEgpx0x-rwaUSgGwOZ2--9" value="" style="endArrow=block;dashed=1;endFill=0;endSize=12;html=1;entryX=0.521;entryY=1;entryDx=0;entryDy=0;entryPerimeter=0;" parent="1" target="ZEgpx0x-rwaUSgGwOZ2--7" edge="1">
                    <mxGeometry width="160" relative="1" as="geometry">
                        <mxPoint x="633" y="380" as="sourcePoint"/>
                        <mxPoint x="510" y="400" as="targetPoint"/>
                    </mxGeometry>
                </mxCell>
                <mxCell id="ZEgpx0x-rwaUSgGwOZ2--10" value="" style="line;strokeWidth=1;fillColor=none;align=left;verticalAlign=middle;spacingTop=-1;spacingLeft=3;spacingRight=3;rotatable=0;labelPosition=right;points=[];portConstraint=eastwest;dashed=1;" parent="1" vertex="1">
                    <mxGeometry x="515" y="379" width="230" height="8" as="geometry"/>
                </mxCell>
                <mxCell id="ZEgpx0x-rwaUSgGwOZ2--12" value="" style="endArrow=none;html=1;edgeStyle=orthogonalEdgeStyle;dashed=1;" parent="1" edge="1">
                    <mxGeometry relative="1" as="geometry">
                        <mxPoint x="515" y="435" as="sourcePoint"/>
                        <mxPoint x="515" y="385" as="targetPoint"/>
                    </mxGeometry>
                </mxCell>
                <mxCell id="ZEgpx0x-rwaUSgGwOZ2--15" value="" style="endArrow=none;html=1;edgeStyle=orthogonalEdgeStyle;dashed=1;" parent="1" edge="1">
                    <mxGeometry relative="1" as="geometry">
                        <mxPoint x="745" y="434" as="sourcePoint"/>
                        <mxPoint x="745" y="384" as="targetPoint"/>
                    </mxGeometry>
                </mxCell>
                <mxCell id="ZEgpx0x-rwaUSgGwOZ2--16" value="" style="endArrow=none;html=1;edgeStyle=orthogonalEdgeStyle;dashed=1;" parent="1" edge="1">
                    <mxGeometry relative="1" as="geometry">
                        <mxPoint x="632.5" y="437" as="sourcePoint"/>
                        <mxPoint x="632.5" y="387" as="targetPoint"/>
                    </mxGeometry>
                </mxCell>
                <mxCell id="ZEgpx0x-rwaUSgGwOZ2--18" value="&lt;b&gt;EngineGasoline&lt;/b&gt;" style="html=1;" parent="1" vertex="1">
                    <mxGeometry x="460" y="429" width="110" height="50" as="geometry"/>
                </mxCell>
                <mxCell id="ZEgpx0x-rwaUSgGwOZ2--19" value="&lt;b&gt;EngineDiesel&lt;/b&gt;" style="html=1;" parent="1" vertex="1">
                    <mxGeometry x="576" y="429" width="110" height="50" as="geometry"/>
                </mxCell>
                <mxCell id="ZEgpx0x-rwaUSgGwOZ2--20" value="&lt;b&gt;EngineElectric&lt;/b&gt;" style="html=1;" parent="1" vertex="1">
                    <mxGeometry x="691" y="429" width="110" height="50" as="geometry"/>
                </mxCell>
                <mxCell id="ZEgpx0x-rwaUSgGwOZ2--21" value="Car" style="swimlane;fontStyle=3;align=center;verticalAlign=top;childLayout=stackLayout;horizontal=1;startSize=26;horizontalStack=0;resizeParent=1;resizeParentMax=0;resizeLast=0;collapsible=1;marginBottom=0;" parent="1" vertex="1">
                    <mxGeometry x="140" y="250" width="160" height="140" as="geometry"/>
                </mxCell>
                <mxCell id="ZEgpx0x-rwaUSgGwOZ2--22" value="- doors: int&#10;- color: String&#10;- body: String" style="text;strokeColor=none;fillColor=none;align=left;verticalAlign=top;spacingLeft=4;spacingRight=4;overflow=hidden;rotatable=0;points=[[0,0.5],[1,0.5]];portConstraint=eastwest;" parent="ZEgpx0x-rwaUSgGwOZ2--21" vertex="1">
                    <mxGeometry y="26" width="160" height="54" as="geometry"/>
                </mxCell>
                <mxCell id="ZEgpx0x-rwaUSgGwOZ2--23" value="" style="line;strokeWidth=1;fillColor=none;align=left;verticalAlign=middle;spacingTop=-1;spacingLeft=3;spacingRight=3;rotatable=0;labelPosition=right;points=[];portConstraint=eastwest;" parent="ZEgpx0x-rwaUSgGwOZ2--21" vertex="1">
                    <mxGeometry y="80" width="160" height="8" as="geometry"/>
                </mxCell>
                <mxCell id="ZEgpx0x-rwaUSgGwOZ2--24" value="+ createEngine(): Engine&#10;+ assemblyCar(): void&#10;..." style="text;strokeColor=none;fillColor=none;align=left;verticalAlign=top;spacingLeft=4;spacingRight=4;overflow=hidden;rotatable=0;points=[[0,0.5],[1,0.5]];portConstraint=eastwest;" parent="ZEgpx0x-rwaUSgGwOZ2--21" vertex="1">
                    <mxGeometry y="88" width="160" height="52" as="geometry"/>
                </mxCell>
                <mxCell id="ZEgpx0x-rwaUSgGwOZ2--25" value="" style="endArrow=none;endFill=0;endSize=12;html=1;entryX=0;entryY=0.5;entryDx=0;entryDy=0;" parent="1" target="ZEgpx0x-rwaUSgGwOZ2--6" edge="1">
                    <mxGeometry width="160" relative="1" as="geometry">
                        <mxPoint x="300" y="309" as="sourcePoint"/>
                        <mxPoint x="460" y="306.5" as="targetPoint"/>
                    </mxGeometry>
                </mxCell>
                <mxCell id="ZEgpx0x-rwaUSgGwOZ2--26" value="" style="line;strokeWidth=1;fillColor=none;align=left;verticalAlign=middle;spacingTop=-1;spacingLeft=3;spacingRight=3;rotatable=0;labelPosition=right;points=[];portConstraint=eastwest;" parent="1" vertex="1">
                    <mxGeometry x="105" y="416" width="230" height="8" as="geometry"/>
                </mxCell>
                <mxCell id="ZEgpx0x-rwaUSgGwOZ2--27" value="" style="endArrow=none;html=1;edgeStyle=orthogonalEdgeStyle;" parent="1" edge="1">
                    <mxGeometry relative="1" as="geometry">
                        <mxPoint x="105" y="471" as="sourcePoint"/>
                        <mxPoint x="105" y="421" as="targetPoint"/>
                    </mxGeometry>
                </mxCell>
                <mxCell id="ZEgpx0x-rwaUSgGwOZ2--28" value="" style="endArrow=none;html=1;edgeStyle=orthogonalEdgeStyle;" parent="1" edge="1">
                    <mxGeometry relative="1" as="geometry">
                        <mxPoint x="335" y="471" as="sourcePoint"/>
                        <mxPoint x="335" y="421" as="targetPoint"/>
                    </mxGeometry>
                </mxCell>
                <mxCell id="ZEgpx0x-rwaUSgGwOZ2--35" value="" style="endArrow=block;endFill=0;endSize=12;html=1;entryX=0.497;entryY=1;entryDx=0;entryDy=0;entryPerimeter=0;" parent="1" target="ZEgpx0x-rwaUSgGwOZ2--24" edge="1">
                    <mxGeometry width="160" relative="1" as="geometry">
                        <mxPoint x="220" y="420" as="sourcePoint"/>
                        <mxPoint x="219.5" y="400" as="targetPoint"/>
                    </mxGeometry>
                </mxCell>
                <mxCell id="ZEgpx0x-rwaUSgGwOZ2--36" value="LadaPriora" style="swimlane;fontStyle=1;align=center;verticalAlign=top;childLayout=stackLayout;horizontal=1;startSize=26;horizontalStack=0;resizeParent=1;resizeParentMax=0;resizeLast=0;collapsible=1;marginBottom=0;" parent="1" vertex="1">
                    <mxGeometry x="26" y="470" width="160" height="114" as="geometry"/>
                </mxCell>
                <mxCell id="ZEgpx0x-rwaUSgGwOZ2--37" value="- doors: int&#10;- color: String&#10;- body: String" style="text;strokeColor=none;fillColor=none;align=left;verticalAlign=top;spacingLeft=4;spacingRight=4;overflow=hidden;rotatable=0;points=[[0,0.5],[1,0.5]];portConstraint=eastwest;" parent="ZEgpx0x-rwaUSgGwOZ2--36" vertex="1">
                    <mxGeometry y="26" width="160" height="54" as="geometry"/>
                </mxCell>
                <mxCell id="ZEgpx0x-rwaUSgGwOZ2--38" value="" style="line;strokeWidth=1;fillColor=none;align=left;verticalAlign=middle;spacingTop=-1;spacingLeft=3;spacingRight=3;rotatable=0;labelPosition=right;points=[];portConstraint=eastwest;" parent="ZEgpx0x-rwaUSgGwOZ2--36" vertex="1">
                    <mxGeometry y="80" width="160" height="8" as="geometry"/>
                </mxCell>
                <mxCell id="ZEgpx0x-rwaUSgGwOZ2--39" value="+ createEngine(): Engine" style="text;strokeColor=none;fillColor=none;align=left;verticalAlign=top;spacingLeft=4;spacingRight=4;overflow=hidden;rotatable=0;points=[[0,0.5],[1,0.5]];portConstraint=eastwest;" parent="ZEgpx0x-rwaUSgGwOZ2--36" vertex="1">
                    <mxGeometry y="88" width="160" height="26" as="geometry"/>
                </mxCell>
                <mxCell id="ZEgpx0x-rwaUSgGwOZ2--40" value="NissanLeaf" style="swimlane;fontStyle=1;align=center;verticalAlign=top;childLayout=stackLayout;horizontal=1;startSize=26;horizontalStack=0;resizeParent=1;resizeParentMax=0;resizeLast=0;collapsible=1;marginBottom=0;" parent="1" vertex="1">
                    <mxGeometry x="255" y="470" width="160" height="114" as="geometry"/>
                </mxCell>
                <mxCell id="ZEgpx0x-rwaUSgGwOZ2--41" value="- doors: int&#10;- color: String&#10;- body: String" style="text;strokeColor=none;fillColor=none;align=left;verticalAlign=top;spacingLeft=4;spacingRight=4;overflow=hidden;rotatable=0;points=[[0,0.5],[1,0.5]];portConstraint=eastwest;" parent="ZEgpx0x-rwaUSgGwOZ2--40" vertex="1">
                    <mxGeometry y="26" width="160" height="54" as="geometry"/>
                </mxCell>
                <mxCell id="ZEgpx0x-rwaUSgGwOZ2--42" value="" style="line;strokeWidth=1;fillColor=none;align=left;verticalAlign=middle;spacingTop=-1;spacingLeft=3;spacingRight=3;rotatable=0;labelPosition=right;points=[];portConstraint=eastwest;" parent="ZEgpx0x-rwaUSgGwOZ2--40" vertex="1">
                    <mxGeometry y="80" width="160" height="8" as="geometry"/>
                </mxCell>
                <mxCell id="ZEgpx0x-rwaUSgGwOZ2--43" value="+ createEngine(): Engine" style="text;strokeColor=none;fillColor=none;align=left;verticalAlign=top;spacingLeft=4;spacingRight=4;overflow=hidden;rotatable=0;points=[[0,0.5],[1,0.5]];portConstraint=eastwest;" parent="ZEgpx0x-rwaUSgGwOZ2--40" vertex="1">
                    <mxGeometry y="88" width="160" height="26" as="geometry"/>
                </mxCell>
                <mxCell id="ZEgpx0x-rwaUSgGwOZ2--44" value="&lt;div&gt;Engine carEngine = createEngine();&lt;/div&gt;&lt;div&gt;print(carEngine.startEngine());&lt;/div&gt;&lt;div&gt;...&amp;nbsp; &amp;nbsp;&amp;nbsp;&lt;/div&gt;&lt;div&gt;print(carEngine.stopEngine());&lt;/div&gt;" style="html=1;dropTarget=0;align=left;" parent="1" vertex="1">
                    <mxGeometry x="17" y="90" width="204" height="90" as="geometry"/>
                </mxCell>
                <mxCell id="ZEgpx0x-rwaUSgGwOZ2--45" value="" style="shape=module;jettyWidth=8;jettyHeight=4;" parent="ZEgpx0x-rwaUSgGwOZ2--44" vertex="1">
                    <mxGeometry x="1" width="20" height="20" relative="1" as="geometry">
                        <mxPoint x="-27" y="7" as="offset"/>
                    </mxGeometry>
                </mxCell>
                <mxCell id="ZEgpx0x-rwaUSgGwOZ2--46" value="&lt;b&gt;return&lt;/b&gt; EngineGasoline();" style="html=1;dropTarget=0;" parent="1" vertex="1">
                    <mxGeometry x="22" y="614" width="164" height="66" as="geometry"/>
                </mxCell>
                <mxCell id="ZEgpx0x-rwaUSgGwOZ2--47" value="" style="shape=module;jettyWidth=8;jettyHeight=4;" parent="ZEgpx0x-rwaUSgGwOZ2--46" vertex="1">
                    <mxGeometry x="1" width="20" height="20" relative="1" as="geometry">
                        <mxPoint x="-27" y="7" as="offset"/>
                    </mxGeometry>
                </mxCell>
                <mxCell id="ZEgpx0x-rwaUSgGwOZ2--48" value="&lt;b&gt;return&lt;/b&gt;&amp;nbsp;EngineElectric();" style="html=1;dropTarget=0;" parent="1" vertex="1">
                    <mxGeometry x="252.5" y="614" width="165" height="66" as="geometry"/>
                </mxCell>
                <mxCell id="ZEgpx0x-rwaUSgGwOZ2--49" value="" style="shape=module;jettyWidth=8;jettyHeight=4;" parent="ZEgpx0x-rwaUSgGwOZ2--48" vertex="1">
                    <mxGeometry x="1" width="20" height="20" relative="1" as="geometry">
                        <mxPoint x="-27" y="7" as="offset"/>
                    </mxGeometry>
                </mxCell>
                <mxCell id="ZEgpx0x-rwaUSgGwOZ2--50" value="" style="endArrow=none;html=1;edgeStyle=orthogonalEdgeStyle;exitX=0.5;exitY=1.038;exitDx=0;exitDy=0;exitPerimeter=0;entryX=0.5;entryY=0;entryDx=0;entryDy=0;dashed=1;" parent="1" source="ZEgpx0x-rwaUSgGwOZ2--43" target="ZEgpx0x-rwaUSgGwOZ2--48" edge="1">
                    <mxGeometry relative="1" as="geometry">
                        <mxPoint x="435" y="640" as="sourcePoint"/>
                        <mxPoint x="335" y="610" as="targetPoint"/>
                    </mxGeometry>
                </mxCell>
                <mxCell id="ZEgpx0x-rwaUSgGwOZ2--53" value="" style="endArrow=none;html=1;edgeStyle=orthogonalEdgeStyle;exitX=0.5;exitY=1.038;exitDx=0;exitDy=0;exitPerimeter=0;entryX=0.5;entryY=0;entryDx=0;entryDy=0;dashed=1;" parent="1" edge="1">
                    <mxGeometry relative="1" as="geometry">
                        <mxPoint x="103.5" y="583.998" as="sourcePoint"/>
                        <mxPoint x="103.5" y="613.01" as="targetPoint"/>
                    </mxGeometry>
                </mxCell>
                <mxCell id="0AscMwJU6KdIiPLHziZc-1" value="" style="endArrow=none;html=1;edgeStyle=orthogonalEdgeStyle;rounded=0;dashed=1;" parent="1" edge="1">
                    <mxGeometry relative="1" as="geometry">
                        <mxPoint x="118" y="179" as="sourcePoint"/>
                        <mxPoint x="139" y="365" as="targetPoint"/>
                        <Array as="points">
                            <mxPoint x="118" y="179"/>
                            <mxPoint x="118" y="365"/>
                        </Array>
                    </mxGeometry>
                </mxCell>
            </root>
        </mxGraphModel>
    </diagram>
</mxfile>